<?xml version="1.0" standalone="no"?>
<!DOCTYPE svg PUBLIC "-//W3C//DTD SVG 20010904//EN"
 "http://www.w3.org/TR/2001/REC-SVG-20010904/DTD/svg10.dtd">
<svg version="1.0" xmlns="http://www.w3.org/2000/svg"
 width="141px" height="36px" viewBox="0 0 732.000000 241.000000"
 preserveAspectRatio="xMidYMid meet">

<g transform="translate(0.000000,241.000000) scale(0.100000,-0.100000)"
fill="#000000" stroke="none">
<path d="M1707 2240 c-3 -8 -11 -35 -17 -60 -19 -75 -105 -240 -168 -326 -74
-98 -172 -191 -268 -254 -83 -54 -126 -72 -324 -134 -174 -54 -275 -99 -358
-160 -203 -150 -243 -369 -116 -646 l35 -74 -65 -146 c-106 -236 -99 -211 -63
-236 18 -11 44 -28 58 -37 l26 -17 1 39 c2 44 25 108 73 203 17 33 33 77 35
97 13 121 18 149 39 212 47 137 143 252 292 350 82 54 128 76 282 140 97 40
188 64 144 37 -96 -58 -127 -78 -193 -127 -207 -152 -369 -353 -445 -554 -41
-111 -52 -103 153 -109 482 -15 698 97 891 463 136 258 171 533 111 888 -34
206 -111 485 -123 451z"/>
<path d="M2427 1656 c-76 -16 -135 -59 -166 -121 l-26 -49 0 -286 0 -285 31
-55 c26 -46 42 -60 92 -87 134 -70 346 -49 434 44 51 54 61 94 66 271 l4 162
-171 0 -171 0 0 -85 0 -85 80 0 c78 0 80 0 80 -25 0 -40 -30 -103 -58 -121
-34 -23 -123 -23 -157 0 -48 31 -55 68 -55 271 0 210 7 243 61 270 23 12 49
16 91 13 73 -5 107 -34 115 -96 l6 -42 90 0 90 0 -7 67 c-13 131 -65 199 -175
233 -72 23 -166 25 -254 6z m255 -99 c53 -31 78 -66 85 -118 7 -51 -12 -51
-21 0 -22 142 -313 179 -391 49 -18 -30 -20 -54 -23 -267 -3 -196 -1 -241 13
-276 29 -77 82 -105 197 -105 74 0 128 17 166 52 30 29 52 107 52 190 l0 68
-96 0 c-72 0 -95 3 -91 13 2 8 32 12 103 12 l99 0 0 -110 c0 -96 -3 -115 -23
-150 -39 -67 -80 -88 -183 -93 -104 -5 -164 8 -204 45 -51 48 -55 72 -55 335
0 224 2 245 21 284 36 75 103 105 225 101 66 -3 89 -8 126 -30z"/>
<path d="M3100 1205 l0 -456 88 3 87 3 3 118 3 118 36 -3 c37 -3 37 -4 90
-118 l52 -115 96 -3 95 -3 -19 43 c-10 24 -37 83 -60 132 l-42 89 34 31 c67
61 72 81 72 276 0 196 -8 225 -79 287 -47 42 -107 53 -296 53 l-160 0 0 -455z
m379 360 c68 -40 76 -60 79 -218 2 -86 -1 -157 -8 -179 -12 -41 -58 -82 -102
-93 -16 -4 -28 -9 -28 -11 0 -2 25 -54 55 -114 30 -60 55 -114 55 -120 0 -31
-23 3 -74 110 l-58 120 -99 0 -99 0 0 -120 c0 -73 -4 -120 -10 -120 -6 0 -10
135 -10 386 l0 386 133 -4 c109 -3 138 -7 166 -23z"/>
<path d="M3200 1325 l0 -235 116 0 c198 0 217 19 222 222 5 161 -6 197 -69
228 -31 16 -59 20 -154 20 l-115 0 0 -235z m209 144 c17 -6 36 -19 41 -29 6
-10 10 -64 10 -120 0 -94 -2 -103 -25 -125 -21 -22 -33 -25 -90 -25 l-65 0 0
155 0 155 49 0 c26 0 62 -5 80 -11z"/>
<path d="M4065 1648 c-13 -33 -235 -869 -235 -883 0 -12 15 -15 84 -15 l85 0
15 53 c8 28 20 74 27 100 l12 48 105 -3 105 -3 26 -95 26 -95 88 -3 c48 -1 87
0 87 3 0 4 -214 804 -237 888 -5 14 -18 17 -94 17 -63 0 -91 -4 -94 -12z m107
-79 c12 -21 218 -717 218 -736 0 -32 -16 1 -45 95 l-31 97 -156 3 -157 3 -21
-73 c-36 -123 -41 -138 -51 -138 -5 0 -9 3 -9 7 0 6 192 669 211 731 11 33 26
38 41 11z"/>
<path d="M4086 1322 c-37 -125 -70 -235 -72 -244 -5 -17 6 -18 140 -18 80 0
146 3 146 7 0 7 -141 476 -144 480 -1 2 -33 -100 -70 -225z m105 -105 l26 -92
-55 -3 c-30 -2 -56 -1 -59 1 -2 3 3 29 11 58 8 30 20 74 26 98 6 23 14 40 18
36 4 -4 19 -48 33 -98z"/>
<path d="M4690 1206 l0 -456 189 0 c247 0 291 15 344 115 17 32 22 62 25 157
4 125 -9 191 -49 242 -15 20 -18 30 -10 45 19 34 24 125 11 186 -15 71 -62
126 -125 145 -22 6 -118 14 -212 17 l-173 6 0 -457z m365 364 c16 -8 40 -30
52 -49 39 -57 27 -180 -20 -220 -23 -18 -21 -26 7 -39 14 -6 37 -33 53 -59 26
-44 28 -56 28 -154 0 -96 -2 -109 -25 -142 -46 -67 -86 -81 -242 -85 -112 -4
-138 -2 -139 9 0 17 0 414 0 613 l1 148 128 -4 c85 -2 137 -8 157 -18z"/>
<path d="M4790 1425 l0 -135 110 0 c120 0 170 13 190 49 20 39 23 113 6 154
-22 54 -60 67 -196 67 l-110 0 0 -135z m216 29 c20 -19 24 -31 19 -52 -9 -40
-32 -52 -97 -52 l-58 0 0 65 0 65 55 0 c47 0 60 -4 81 -26z"/>
<path d="M4790 1050 l0 -210 98 0 c206 0 267 48 266 210 0 100 -20 152 -73
187 -31 21 -46 23 -162 23 l-129 0 0 -210z m220 105 c42 -22 60 -53 60 -106 0
-81 -60 -129 -162 -129 l-38 0 0 125 0 125 55 0 c31 0 69 -7 85 -15z"/>
<path d="M5490 1205 l0 -455 85 0 85 0 0 455 0 455 -85 0 -85 0 0 -455z m100
0 c0 -238 -4 -376 -10 -380 -7 -4 -10 125 -10 380 0 255 3 384 10 380 6 -4 10
-142 10 -380z"/>
<path d="M5930 1205 l0 -455 85 0 85 0 2 188 3 187 123 3 122 3 0 79 0 79
-122 3 -123 3 -3 97 -3 97 158 3 158 3 1 70 c1 38 -1 75 -3 82 -4 10 -60 13
-244 13 l-239 0 0 -455z m410 370 c0 -13 -24 -15 -155 -15 l-155 0 0 -165 0
-164 127 -3 c90 -2 128 -7 131 -15 3 -10 -27 -13 -127 -13 l-131 0 -2 -187
c-2 -117 -7 -188 -13 -188 -10 0 -20 727 -10 752 3 10 46 13 170 13 140 0 165
-2 165 -15z"/>
<path d="M6546 1652 c-2 -4 42 -113 100 -242 l104 -234 0 -213 0 -213 90 0 90
0 0 214 0 215 100 232 c55 129 100 237 100 241 0 4 -38 8 -85 8 l-85 0 -61
-122 -61 -121 -30 54 c-16 30 -45 84 -64 122 l-34 67 -80 0 c-43 0 -81 -4 -84
-8z m206 -242 c45 -94 84 -168 87 -165 3 3 37 72 76 153 85 177 92 189 100
180 4 -4 -32 -86 -79 -184 l-86 -177 0 -198 c0 -126 -4 -199 -10 -199 -6 0
-10 70 -10 190 l0 190 -84 168 c-91 182 -103 212 -86 212 5 0 47 -77 92 -170z"/>
</g>
</svg>
